<svg width="373" height="51" viewBox="0 0 373 51" fill="none" xmlns="http://www.w3.org/2000/svg">
<path d="M0.328 45.48C1.52267 45.4373 2.44 45.2453 3.08 44.904C3.72 44.52 4.168 43.88 4.424 42.984C4.68 42.0453 4.808 40.7653 4.808 39.144V13.608C4.808 12.5413 4.82933 11.5173 4.872 10.536C4.95733 9.55467 5.02133 8.78667 5.064 8.232C4.33867 8.27466 3.50667 8.31733 2.568 8.36C1.62933 8.36 0.882667 8.38133 0.328 8.424V4.2C3.10133 4.15733 5.896 4.136 8.712 4.136C11.528 4.136 14.344 4.11466 17.16 4.072C21.0427 4.02933 24.392 4.52 27.208 5.544C30.024 6.52533 32.1787 8.04 33.672 10.088C35.1653 12.0933 35.912 14.696 35.912 17.896C35.912 19.6027 35.5493 21.3093 34.824 23.016C34.1413 24.68 33.032 26.2373 31.496 27.688C30.0027 29.096 28.0187 30.248 25.544 31.144C23.112 32.04 20.168 32.5307 16.712 32.616C16.0293 32.616 15.368 32.616 14.728 32.616C14.088 32.616 13.4693 32.5947 12.872 32.552V39.4C12.872 40.5947 12.8507 41.6827 12.808 42.664C12.7653 43.6453 12.7013 44.4133 12.616 44.968C13.1707 44.9253 13.7893 44.904 14.472 44.904C15.1547 44.8613 15.8373 44.84 16.52 44.84C17.2453 44.7973 17.8 44.776 18.184 44.776V49H0.328V45.48ZM12.872 28.52C13.4267 28.5627 13.96 28.6053 14.472 28.648C14.984 28.6907 15.5387 28.712 16.136 28.712C18.5253 28.712 20.5307 28.2853 22.152 27.432C23.816 26.5787 25.0747 25.3627 25.928 23.784C26.7813 22.1627 27.208 20.2 27.208 17.896C27.208 15.8053 26.9093 14.0987 26.312 12.776C25.7147 11.4533 24.9253 10.4507 23.944 9.768C22.9627 9.04266 21.8747 8.552 20.68 8.296C19.4853 8.04 18.2907 7.912 17.096 7.912C15.9867 7.912 15.112 8.08267 14.472 8.424C13.8747 8.76533 13.448 9.384 13.192 10.28C12.9787 11.1333 12.872 12.3067 12.872 13.8V28.52ZM39.8755 45.608C41.1128 45.608 41.9875 45.352 42.4995 44.84C43.0115 44.2853 43.3315 43.5173 43.4595 42.536C43.5875 41.5547 43.6515 40.4453 43.6515 39.208V27.176C43.6515 26.408 43.6728 25.5973 43.7155 24.744C43.7582 23.8907 43.8222 23.016 43.9075 22.12C43.1822 22.1627 42.3928 22.2053 41.5395 22.248C40.6862 22.248 39.9822 22.2693 39.4275 22.312V18.216H41.7955C43.5022 18.216 44.9315 18.024 46.0835 17.64C47.2355 17.2133 48.0462 16.7867 48.5155 16.36H51.2035C51.2888 16.872 51.3528 17.6827 51.3955 18.792C51.4382 19.9013 51.4595 21.0107 51.4595 22.12C52.4408 20.84 53.4648 19.752 54.5315 18.856C55.5982 17.9173 56.6862 17.2133 57.7955 16.744C58.9475 16.232 60.1208 15.976 61.3155 15.976C62.6808 15.976 63.8755 16.36 64.8995 17.128C65.9662 17.896 66.4995 19.1333 66.4995 20.84C66.4995 21.3947 66.3502 21.992 66.0515 22.632C65.7955 23.272 65.3688 23.8053 64.7715 24.232C64.2168 24.6587 63.4488 24.872 62.4675 24.872C61.5715 24.872 60.7182 24.5947 59.9075 24.04C59.1395 23.4427 58.7342 22.504 58.6915 21.224C57.7955 21.1813 56.8568 21.5013 55.8755 22.184C54.9368 22.8667 54.0835 23.6987 53.3155 24.68C52.5475 25.6613 51.9502 26.664 51.5235 27.688L51.5875 39.848C51.5875 40.5307 51.5662 41.3627 51.5235 42.344C51.4808 43.2827 51.4168 44.2 51.3315 45.096C52.0142 45.0107 52.7395 44.968 53.5075 44.968C54.2755 44.9253 54.9155 44.904 55.4275 44.904V49H39.8755V45.608ZM84.807 50.024C81.7777 50.024 79.0257 49.3627 76.551 48.04C74.0763 46.6747 72.1137 44.776 70.663 42.344C69.255 39.8693 68.551 36.9893 68.551 33.704C68.551 30.248 69.2763 27.176 70.727 24.488C72.1777 21.8 74.119 19.7093 76.551 18.216C79.0257 16.7227 81.735 15.976 84.679 15.976C87.7083 15.976 90.439 16.6587 92.871 18.024C95.303 19.3893 97.223 21.288 98.631 23.72C100.082 26.152 100.807 29.032 100.807 32.36C100.807 35.8587 100.103 38.952 98.695 41.64C97.3297 44.2853 95.431 46.3547 92.999 47.848C90.6097 49.2987 87.879 50.024 84.807 50.024ZM85.127 46.12C87.047 46.12 88.519 45.5227 89.543 44.328C90.567 43.1333 91.271 41.6187 91.655 39.784C92.0817 37.9067 92.295 35.9867 92.295 34.024C92.295 32.36 92.1457 30.6747 91.847 28.968C91.591 27.2613 91.1643 25.7253 90.567 24.36C89.9697 22.952 89.1803 21.8427 88.199 21.032C87.2177 20.1787 86.023 19.752 84.615 19.752C82.7377 19.7947 81.2443 20.4133 80.135 21.608C79.0257 22.8027 78.215 24.3173 77.703 26.152C77.2337 27.9867 76.999 29.928 76.999 31.976C76.999 34.28 77.2763 36.5413 77.831 38.76C78.3857 40.936 79.2603 42.728 80.455 44.136C81.6497 45.5013 83.207 46.1627 85.127 46.12ZM121.432 50.024C118.403 50.024 115.651 49.3627 113.176 48.04C110.701 46.6747 108.739 44.776 107.288 42.344C105.88 39.8693 105.176 36.9893 105.176 33.704C105.176 30.248 105.901 27.176 107.352 24.488C108.803 21.8 110.744 19.7093 113.176 18.216C115.651 16.7227 118.36 15.976 121.304 15.976C124.333 15.976 127.064 16.6587 129.496 18.024C131.928 19.3893 133.848 21.288 135.256 23.72C136.707 26.152 137.432 29.032 137.432 32.36C137.432 35.8587 136.728 38.952 135.32 41.64C133.955 44.2853 132.056 46.3547 129.624 47.848C127.235 49.2987 124.504 50.024 121.432 50.024ZM121.752 46.12C123.672 46.12 125.144 45.5227 126.168 44.328C127.192 43.1333 127.896 41.6187 128.28 39.784C128.707 37.9067 128.92 35.9867 128.92 34.024C128.92 32.36 128.771 30.6747 128.472 28.968C128.216 27.2613 127.789 25.7253 127.192 24.36C126.595 22.952 125.805 21.8427 124.824 21.032C123.843 20.1787 122.648 19.752 121.24 19.752C119.363 19.7947 117.869 20.4133 116.76 21.608C115.651 22.8027 114.84 24.3173 114.328 26.152C113.859 27.9867 113.624 29.928 113.624 31.976C113.624 34.28 113.901 36.5413 114.456 38.76C115.011 40.936 115.885 42.728 117.08 44.136C118.275 45.5013 119.832 46.1627 121.752 46.12ZM146.031 15.336C146.031 10.3013 147.076 6.58933 149.167 4.2C151.258 1.768 154.287 0.551998 158.255 0.551998C159.919 0.551998 161.306 0.807997 162.415 1.32C163.567 1.78933 164.442 2.42933 165.039 3.24C165.636 4.05066 165.935 4.94666 165.935 5.928C165.935 6.90933 165.636 7.784 165.039 8.552C164.442 9.32 163.567 9.704 162.415 9.704C161.263 9.74666 160.388 9.42666 159.791 8.744C159.194 8.06133 158.895 7.29333 158.895 6.44C158.895 6.184 158.916 5.94933 158.959 5.736C159.002 5.52266 159.044 5.288 159.087 5.032C158.874 4.776 158.575 4.60533 158.191 4.52C157.85 4.392 157.53 4.328 157.231 4.328C156.335 4.328 155.631 4.60533 155.119 5.16C154.607 5.672 154.266 6.312 154.095 7.08C153.924 7.848 153.839 8.65866 153.839 9.512V17H161.455V21.096L153.839 21.288L153.903 39.784C153.903 40.4667 153.882 41.2987 153.839 42.28C153.839 43.2613 153.775 44.2 153.647 45.096C154.372 45.0107 155.14 44.968 155.951 44.968C156.804 44.9253 157.487 44.904 157.999 44.904V49H142.255V45.608C143.492 45.608 144.367 45.352 144.879 44.84C145.434 44.2853 145.775 43.5173 145.903 42.536C146.031 41.5547 146.095 40.4453 146.095 39.208L146.031 21.416L141.167 21.48V17H146.031V15.336ZM168.516 49V45.48C169.71 45.4373 170.628 45.2453 171.268 44.904C171.908 44.52 172.356 43.88 172.612 42.984C172.868 42.0453 172.996 40.7653 172.996 39.144V13.608C172.996 12.5413 173.017 11.5173 173.06 10.536C173.145 9.55467 173.209 8.78667 173.252 8.232C172.526 8.27466 171.694 8.31733 170.756 8.36C169.817 8.36 169.07 8.38133 168.516 8.424V4.2H199.748L200.068 16.232H196.548C196.548 13.8 196.142 11.9867 195.332 10.792C194.521 9.55466 193.497 8.72266 192.26 8.296C191.022 7.86933 189.764 7.67733 188.484 7.72L185.348 7.784C184.238 7.82667 183.364 8.04 182.724 8.424C182.126 8.808 181.7 9.46933 181.444 10.408C181.188 11.304 181.06 12.5413 181.06 14.12V25.256H189.124L188.804 19.752H193.028V34.6H189.572C189.572 32.7653 189.294 31.4427 188.74 30.632C188.185 29.8213 187.396 29.3307 186.372 29.16C185.39 28.9467 184.217 28.8827 182.852 28.968L181.06 29.032V39.464C181.06 40.616 181.038 41.6827 180.996 42.664C180.953 43.6453 180.889 44.4133 180.804 44.968C181.358 44.9253 181.998 44.904 182.724 44.904C183.492 44.8613 184.238 44.84 184.964 44.84C185.732 44.7973 186.329 44.776 186.756 44.776V49H168.516ZM203.23 45.608C204.467 45.608 205.342 45.352 205.854 44.84C206.408 44.2853 206.728 43.5173 206.814 42.536C206.942 41.5547 207.006 40.4453 207.006 39.208V11.56C207.006 10.8347 207.027 10.0453 207.07 9.192C207.112 8.296 207.176 7.37867 207.262 6.44C206.536 6.48266 205.747 6.52533 204.894 6.568C204.04 6.61066 203.315 6.65333 202.718 6.696V2.536C204.68 2.536 206.28 2.45067 207.518 2.28C208.798 2.06667 209.779 1.81067 210.462 1.512C211.187 1.21333 211.699 0.935998 211.998 0.679996H214.878L214.942 39.848C214.942 40.5307 214.92 41.3627 214.878 42.344C214.835 43.2827 214.75 44.2 214.622 45.096C215.347 45.0107 216.094 44.968 216.862 44.968C217.63 44.9253 218.27 44.904 218.782 44.904V49H203.23V45.608ZM238.995 50.024C235.965 50.024 233.213 49.3627 230.739 48.04C228.264 46.6747 226.301 44.776 224.851 42.344C223.443 39.8693 222.739 36.9893 222.739 33.704C222.739 30.248 223.464 27.176 224.915 24.488C226.365 21.8 228.307 19.7093 230.739 18.216C233.213 16.7227 235.923 15.976 238.867 15.976C241.896 15.976 244.627 16.6587 247.059 18.024C249.491 19.3893 251.411 21.288 252.819 23.72C254.269 26.152 254.995 29.032 254.995 32.36C254.995 35.8587 254.291 38.952 252.882 41.64C251.517 44.2853 249.619 46.3547 247.187 47.848C244.797 49.2987 242.067 50.024 238.995 50.024ZM239.315 46.12C241.235 46.12 242.707 45.5227 243.731 44.328C244.755 43.1333 245.459 41.6187 245.843 39.784C246.269 37.9067 246.483 35.9867 246.483 34.024C246.483 32.36 246.333 30.6747 246.035 28.968C245.779 27.2613 245.352 25.7253 244.755 24.36C244.157 22.952 243.368 21.8427 242.387 21.032C241.405 20.1787 240.211 19.752 238.803 19.752C236.925 19.7947 235.432 20.4133 234.323 21.608C233.213 22.8027 232.403 24.3173 231.891 26.152C231.421 27.9867 231.187 29.928 231.187 31.976C231.187 34.28 231.464 36.5413 232.019 38.76C232.573 40.936 233.448 42.728 234.643 44.136C235.837 45.5013 237.395 46.1627 239.315 46.12ZM269.552 49.192L261.552 26.216C261.21 25.1493 260.933 24.3387 260.72 23.784C260.506 23.1867 260.357 22.696 260.272 22.312C260.186 21.8853 260.08 21.4373 259.952 20.968L257.136 21.096V17H271.92V20.392C270.384 20.4347 269.509 20.9893 269.296 22.056C269.125 23.1227 269.253 24.4453 269.68 26.024L272.112 34.216C272.41 35.1547 272.688 36.1573 272.944 37.224C273.242 38.248 273.498 39.272 273.712 40.296C273.968 39.3147 274.245 38.2907 274.544 37.224C274.842 36.1147 275.205 34.8347 275.632 33.384L280.688 17H286.192L291.76 34.984C292.058 35.88 292.357 36.84 292.656 37.864C292.954 38.888 293.232 39.848 293.488 40.744C293.701 39.8907 293.957 38.9733 294.256 37.992C294.554 36.968 294.853 36.0293 295.152 35.176L298.224 25.704C298.522 24.68 298.8 23.784 299.056 23.016C299.354 22.248 299.696 21.544 300.08 20.904L296.432 21.096V17H308.208V20.392C307.269 20.392 306.458 20.6267 305.776 21.096C305.136 21.5227 304.581 22.0773 304.112 22.76C303.642 23.4427 303.258 24.1253 302.96 24.808C302.661 25.4907 302.426 26.1093 302.256 26.664L294.319 49.192H288.944L283.952 34.28C283.781 33.7253 283.546 33.0213 283.248 32.168C282.992 31.3147 282.736 30.4187 282.48 29.48C282.224 28.5413 281.968 27.6453 281.712 26.792C281.456 27.816 281.136 28.968 280.752 30.248C280.41 31.528 280.069 32.7227 279.728 33.832C279.386 34.9413 279.109 35.7733 278.896 36.328L274.544 49.192H269.552ZM313.241 50.024C312.004 50.024 310.958 49.576 310.105 48.68C309.294 47.7413 308.889 46.632 308.889 45.352C308.889 44.0293 309.316 42.92 310.169 42.024C311.065 41.0853 312.089 40.616 313.241 40.616C314.478 40.616 315.502 41.0853 316.313 42.024C317.124 42.92 317.529 44.0293 317.529 45.352C317.529 46.632 317.124 47.7413 316.313 48.68C315.502 49.576 314.478 50.024 313.241 50.024ZM341.869 49C341.741 48.36 341.655 47.8267 341.613 47.4C341.613 46.9307 341.591 46.3973 341.549 45.8C340.098 47.2507 338.541 48.3173 336.877 49C335.255 49.6827 333.57 50.024 331.821 50.024C328.919 50.024 326.679 49.2347 325.101 47.656C323.565 46.0773 322.797 44.136 322.797 41.832C322.797 39.784 323.351 38.056 324.461 36.648C325.57 35.1973 327.021 34.024 328.812 33.128C330.605 32.1893 332.589 31.4853 334.765 31.016C336.941 30.504 339.095 30.2267 341.229 30.184V26.664C341.229 25.4267 341.079 24.296 340.781 23.272C340.525 22.2053 340.034 21.3733 339.309 20.776C338.583 20.136 337.517 19.816 336.109 19.816C335.17 19.8587 334.21 20.072 333.229 20.456C332.29 20.7973 331.543 21.352 330.989 22.12C331.33 22.504 331.543 22.9307 331.629 23.4C331.714 23.8267 331.757 24.2107 331.757 24.552C331.757 25.32 331.458 26.1307 330.861 26.984C330.263 27.7947 329.303 28.1787 327.981 28.136C326.829 28.0933 325.933 27.688 325.293 26.92C324.695 26.152 324.397 25.2347 324.397 24.168C324.397 22.5467 324.973 21.1387 326.125 19.944C327.319 18.7067 328.919 17.7467 330.925 17.064C332.93 16.3387 335.17 15.976 337.645 15.976C341.314 15.976 344.13 16.936 346.093 18.856C348.055 20.776 349.015 23.848 348.973 28.072C348.973 29.5653 348.973 30.9307 348.973 32.168C348.973 33.3627 348.951 34.5787 348.909 35.816C348.909 37.0107 348.909 38.3547 348.909 39.848C348.909 40.488 348.887 41.2987 348.845 42.28C348.802 43.2187 348.738 44.1573 348.653 45.096C349.421 45.0107 350.189 44.968 350.957 44.968C351.767 44.9253 352.429 44.8827 352.941 44.84V49H341.869ZM341.165 33.96C339.885 34.0453 338.626 34.2587 337.389 34.6C336.151 34.8987 335.042 35.3253 334.061 35.88C333.079 36.4347 332.29 37.1387 331.693 37.992C331.138 38.8027 330.882 39.7413 330.925 40.808C330.967 42.1307 331.394 43.112 332.205 43.752C333.015 44.3493 333.954 44.648 335.021 44.648C336.258 44.648 337.367 44.392 338.349 43.88C339.373 43.368 340.311 42.6853 341.165 41.832C341.165 41.4053 341.165 40.9573 341.165 40.488C341.165 40.0187 341.165 39.5493 341.165 39.08C341.165 38.4827 341.165 37.736 341.165 36.84C341.165 35.944 341.165 34.984 341.165 33.96ZM356.876 45.608C358.113 45.608 358.988 45.352 359.5 44.84C360.012 44.2853 360.332 43.5173 360.46 42.536C360.588 41.5547 360.652 40.4453 360.652 39.208V27.24C360.652 26.5147 360.673 25.7253 360.716 24.872C360.758 23.976 360.822 23.0587 360.908 22.12C360.182 22.1627 359.393 22.2053 358.54 22.248C357.686 22.2907 356.982 22.3333 356.428 22.376V18.216C358.348 18.216 359.926 18.1307 361.164 17.96C362.444 17.7467 363.425 17.4907 364.108 17.192C364.833 16.8933 365.345 16.616 365.644 16.36H368.524V39.848C368.524 40.5307 368.502 41.3627 368.46 42.344C368.46 43.2827 368.396 44.2 368.268 45.096C368.95 45.0107 369.676 44.968 370.444 44.968C371.254 44.9253 371.916 44.904 372.428 44.904V49H356.876V45.608ZM364.236 10.856C362.998 10.856 361.953 10.408 361.1 9.512C360.246 8.57333 359.82 7.44266 359.82 6.12C359.82 4.79733 360.246 3.66666 361.1 2.728C361.996 1.78933 363.041 1.32 364.236 1.32C365.473 1.32 366.497 1.78933 367.308 2.728C368.161 3.66666 368.588 4.79733 368.588 6.12C368.588 7.44266 368.182 8.57333 367.372 9.512C366.561 10.408 365.516 10.856 364.236 10.856Z" fill="white"/>
</svg>
